<?xml version="1.0" encoding="UTF-8" standalone="no"?><svg xmlns="http://www.w3.org/2000/svg" xmlns:xlink="http://www.w3.org/1999/xlink" contentScriptType="application/ecmascript" contentStyleType="text/css" height="235px" preserveAspectRatio="none" style="width:394px;height:235px;" version="1.1" viewBox="0 0 394 235" width="394px" zoomAndPan="magnify"><defs><filter height="300%" id="f1m7tjg26wexyj" width="300%" x="-1" y="-1"><feGaussianBlur result="blurOut" stdDeviation="2.0"/><feColorMatrix in="blurOut" result="blurOut2" type="matrix" values="0 0 0 0 0 0 0 0 0 0 0 0 0 0 0 0 0 0 .4 0"/><feOffset dx="4.0" dy="4.0" in="blurOut2" result="blurOut3"/><feBlend in="SourceGraphic" in2="blurOut3" mode="normal"/></filter></defs><g><!--cluster Collection--><polygon fill="#FFFFFF" filter="url(#f1m7tjg26wexyj)" points="14,16,93,16,100,38.4883,372,38.4883,372,223,14,223,14,16" style="stroke: #000000; stroke-width: 1.5;"/><line style="stroke: #000000; stroke-width: 1.5;" x1="14" x2="100" y1="38.4883" y2="38.4883"/><text fill="#000000" font-family="sans-serif" font-size="14" font-weight="bold" lengthAdjust="spacingAndGlyphs" textLength="73" x="18" y="31.5352">Collection</text><!--cluster GameObjectA--><polygon fill="#FFFFFF" filter="url(#f1m7tjg26wexyj)" points="22,53,32,43,364,43,364,109,354,119,22,119,22,53" style="stroke: #000000; stroke-width: 1.5;"/><line style="stroke: #000000; stroke-width: 1.5;" x1="354" x2="363" y1="53" y2="44"/><line style="stroke: #000000; stroke-width: 1.5;" x1="22" x2="354" y1="53" y2="53"/><line style="stroke: #000000; stroke-width: 1.5;" x1="354" x2="354" y1="53" y2="119"/><text fill="#000000" font-family="sans-serif" font-size="14" font-weight="bold" lengthAdjust="spacingAndGlyphs" textLength="97" x="140.5" y="69.5352">GameObjectA</text><!--cluster GameObjectB--><polygon fill="#FFFFFF" filter="url(#f1m7tjg26wexyj)" points="26,149,36,139,364,139,364,205,354,215,26,215,26,149" style="stroke: #000000; stroke-width: 1.5;"/><line style="stroke: #000000; stroke-width: 1.5;" x1="354" x2="363" y1="149" y2="140"/><line style="stroke: #000000; stroke-width: 1.5;" x1="26" x2="354" y1="149" y2="149"/><line style="stroke: #000000; stroke-width: 1.5;" x1="354" x2="354" y1="149" y2="215"/><text fill="#000000" font-family="sans-serif" font-size="14" font-weight="bold" lengthAdjust="spacingAndGlyphs" textLength="96" x="143" y="165.5352">GameObjectB</text><!--entity ComponentA-1--><rect fill="#FEFECE" filter="url(#f1m7tjg26wexyj)" height="36.4883" style="stroke: #A80036; stroke-width: 1.5;" width="128" x="193" y="75"/><rect fill="#FEFECE" height="5" style="stroke: #A80036; stroke-width: 1.5;" width="10" x="188" y="80"/><rect fill="#FEFECE" height="5" style="stroke: #A80036; stroke-width: 1.5;" width="10" x="188" y="101.4883"/><text fill="#000000" font-family="sans-serif" font-size="14" lengthAdjust="spacingAndGlyphs" textLength="108" x="203" y="98.5352">ComponentA-1</text><!--entity ComponentA-2--><rect fill="#FEFECE" filter="url(#f1m7tjg26wexyj)" height="36.4883" style="stroke: #A80036; stroke-width: 1.5;" width="128" x="30" y="75"/><rect fill="#FEFECE" height="5" style="stroke: #A80036; stroke-width: 1.5;" width="10" x="25" y="80"/><rect fill="#FEFECE" height="5" style="stroke: #A80036; stroke-width: 1.5;" width="10" x="25" y="101.4883"/><text fill="#000000" font-family="sans-serif" font-size="14" lengthAdjust="spacingAndGlyphs" textLength="108" x="40" y="98.5352">ComponentA-2</text><!--entity ComponentB-1--><rect fill="#FEFECE" filter="url(#f1m7tjg26wexyj)" height="36.4883" style="stroke: #A80036; stroke-width: 1.5;" width="126" x="195" y="171"/><rect fill="#FEFECE" height="5" style="stroke: #A80036; stroke-width: 1.5;" width="10" x="190" y="176"/><rect fill="#FEFECE" height="5" style="stroke: #A80036; stroke-width: 1.5;" width="10" x="190" y="197.4883"/><text fill="#000000" font-family="sans-serif" font-size="14" lengthAdjust="spacingAndGlyphs" textLength="106" x="205" y="194.5352">ComponentB-1</text><!--entity ComponentB-2--><rect fill="#FEFECE" filter="url(#f1m7tjg26wexyj)" height="36.4883" style="stroke: #A80036; stroke-width: 1.5;" width="126" x="34" y="171"/><rect fill="#FEFECE" height="5" style="stroke: #A80036; stroke-width: 1.5;" width="10" x="29" y="176"/><rect fill="#FEFECE" height="5" style="stroke: #A80036; stroke-width: 1.5;" width="10" x="29" y="197.4883"/><text fill="#000000" font-family="sans-serif" font-size="14" lengthAdjust="spacingAndGlyphs" textLength="106" x="44" y="194.5352">ComponentB-2</text><!--link GameObjectA to GameObjectB--><!--
@startuml
folder Collection {
  node GameObjectA {
    [ComponentA-1]
    [ComponentA-2]
  }
  node GameObjectB {
    [ComponentB-1]
    [ComponentB-2]
  }
  
}

GameObjectA -[hidden]- GameObjectB
@enduml

PlantUML version 1.2019.06(Sat May 25 02:10:25 JST 2019)
(GPL source distribution)
Java Runtime: Java(TM) SE Runtime Environment
JVM: Java HotSpot(TM) 64-Bit Server VM
Java Version: 1.8.0_131-b11
Operating System: Mac OS X
OS Version: 10.14.2
Default Encoding: UTF-8
Language: ja
Country: JP
--></g></svg>